<svg xmlns="http://www.w3.org/2000/svg" display="none">

    <symbol id="instagram" viewBox="0 0 28 27">
        <path d="M27.9288 7.9381C27.8632 6.50348 27.6226 5.51719 27.2779 4.66256C26.9223 3.75539 26.3752 2.9432 25.6584 2.26803C24.9581 1.58235 24.1101 1.04954 23.1801 0.712055C22.2885 0.379722 21.2708 0.147727 19.7828 0.0844741C18.2836 0.0158646 17.8077 0 14.0055 0C10.2032 0 9.72727 0.0158646 8.23367 0.0791173C6.74564 0.14237 5.72262 0.374571 4.83639 0.706698C3.89522 1.04954 3.05279 1.57699 2.35248 2.26803C1.64126 2.9432 1.08883 3.76075 0.738569 4.65741C0.393861 5.51719 0.153227 6.49812 0.0876195 7.93274C0.0164554 9.37807 0 9.83691 0 13.5027C0 17.1684 0.0164554 17.6273 0.0820632 19.0673C0.147671 20.5019 0.388518 21.4882 0.733226 22.3428C1.08883 23.25 1.64126 24.0622 2.35248 24.7373C3.05279 25.423 3.90078 25.9558 4.83083 26.2933C5.72262 26.6256 6.74008 26.8576 8.22833 26.9209C9.72171 26.9843 10.1978 27 14.0001 27C17.8024 27 18.2783 26.9843 19.7719 26.9209C21.2599 26.8576 22.2829 26.6256 23.1692 26.2933C25.0513 25.5918 26.5393 24.1571 27.267 22.3428C27.6115 21.483 27.8523 20.5019 27.9179 19.0673C27.9835 17.6273 28 17.1684 28 13.5027C28 9.83691 27.9944 9.37807 27.9288 7.9381ZM25.4069 18.9618C25.3466 20.2804 25.1169 20.9924 24.9254 21.4671C24.4548 22.6434 23.4865 23.5769 22.2665 24.0306C21.7741 24.2152 21.0302 24.4367 19.6678 24.4946C18.1907 24.5581 17.7477 24.5737 14.011 24.5737C10.2744 24.5737 9.82578 24.5581 8.35399 24.4946C6.98627 24.4367 6.2477 24.2152 5.75532 24.0306C5.14818 23.8143 4.59554 23.4715 4.14697 23.0231C3.68194 22.5853 3.32634 22.0578 3.10195 21.4725C2.91046 20.9978 2.68073 20.2804 2.62068 18.9671C2.55486 17.543 2.53862 17.1157 2.53862 13.5132C2.53862 9.91067 2.55486 9.47821 2.62068 8.05945C2.68073 6.74083 2.91046 6.02878 3.10195 5.55407C3.32634 4.96852 3.68194 4.43592 4.15253 4.00325C4.60644 3.55492 5.15353 3.21208 5.76088 2.99595C6.25326 2.81134 6.99738 2.58985 8.35955 2.53175C9.83668 2.4685 10.2799 2.45264 14.0163 2.45264C17.7586 2.45264 18.2016 2.4685 19.6734 2.53175C21.0411 2.58985 21.7797 2.81134 22.272 2.99595C22.8792 3.21208 23.4318 3.55492 23.8804 4.00325C24.3454 4.44107 24.701 4.96852 24.9254 5.55407C25.1169 6.02878 25.3466 6.74598 25.4069 8.05945C25.4725 9.48356 25.489 9.91067 25.489 13.5132C25.489 17.1157 25.4725 17.5377 25.4069 18.9618Z"/>
        <path d="M14.0055 6.56673C10.0337 6.56673 6.81124 9.67332 6.81124 13.5027C6.81124 17.332 10.0337 20.4386 14.0055 20.4386C17.9774 20.4386 21.1997 17.332 21.1997 13.5027C21.1997 9.67332 17.9774 6.56673 14.0055 6.56673ZM14.0055 18.0018C11.4288 18.0018 9.33875 15.987 9.33875 13.5027C9.33875 11.0183 11.4288 9.0035 14.0055 9.0035C16.5823 9.0035 18.6722 11.0183 18.6722 13.5027C18.6722 15.987 16.5823 18.0018 14.0055 18.0018Z"/>
        <path d="M23.1638 6.2925C23.1638 7.18669 22.4118 7.91173 21.4841 7.91173C20.5566 7.91173 19.8046 7.18669 19.8046 6.2925C19.8046 5.39811 20.5566 4.67328 21.4841 4.67328C22.4118 4.67328 23.1638 5.39811 23.1638 6.2925Z"/>
    </symbol>

    <symbol id="fb" viewBox="0 0 14 27">
        <path d="M11.444 4.48313H14V0.190125C13.559 0.131625 12.0425 0 10.2763 0C6.59112 0 4.06666 2.23538 4.06666 6.34387V10.125H0V14.9242H4.06666V27H9.05258V14.9254H12.9548L13.5742 10.1261H9.05141V6.81975C9.05258 5.43262 9.43988 4.48313 11.444 4.48313Z"/>
    </symbol>

    <symbol id="vk" viewBox="0 0 29 17">
        <path d="M28.7415 15.1629C28.6636 15.0288 28.1814 13.9524 25.8612 11.74C23.4323 9.42335 23.7586 9.79953 26.6842 5.79375C28.466 3.35414 29.1784 1.86431 28.9554 1.22741C28.7433 0.620301 27.4328 0.780458 27.4328 0.780458L23.0752 0.80653C23.0752 0.80653 22.7526 0.761835 22.5115 0.908956C22.2777 1.05421 22.1272 1.38943 22.1272 1.38943C22.1272 1.38943 21.4366 3.27779 20.5158 4.88308C18.5745 8.27059 17.7968 8.44937 17.4796 8.23893C16.7419 7.74915 16.9268 6.26863 16.9268 5.2183C16.9268 1.93508 17.4107 0.566294 15.9824 0.212459C15.5075 0.0951346 15.1595 0.0169184 13.9468 0.00388234C12.3916 -0.0128783 11.0738 0.00946921 10.3288 0.38379C9.83213 0.633337 9.44966 1.19016 9.68349 1.22182C9.9717 1.26093 10.6242 1.40246 10.9705 1.88666C11.4182 2.51053 11.4019 3.91469 11.4019 3.91469C11.4019 3.91469 11.6593 7.77895 10.8019 8.25942C10.2128 8.58904 9.40616 7.91676 7.67509 4.84211C6.78872 3.26848 6.11804 1.52724 6.11804 1.52724C6.11804 1.52724 5.98934 1.2032 5.75914 1.03C5.47999 0.819566 5.08847 0.752524 5.08847 0.752524L0.944787 0.778596C0.944787 0.778596 0.323053 0.797219 0.0946616 1.0747C-0.108353 1.32238 0.0783479 1.83265 0.0783479 1.83265C0.0783479 1.83265 3.32296 9.63006 6.99536 13.5614C10.365 17.1649 14.1897 16.9284 14.1897 16.9284H15.9226C15.9226 16.9284 16.4464 16.8688 16.7129 16.5727C16.9594 16.3008 16.9503 15.7905 16.9503 15.7905C16.9503 15.7905 16.9159 13.4012 17.9962 13.0492C19.0602 12.7028 20.427 15.3585 21.8753 16.3809C22.9701 17.1537 23.8021 16.9843 23.8021 16.9843L27.6757 16.9284C27.6757 16.9284 29.7022 16.7999 28.7415 15.1629Z"/>
    </symbol>

    <symbol id="youtube" viewBox="0 0 30 19">
        <path d="M29.3819 2.97305C29.0362 1.81049 28.0229 0.894067 26.7378 0.581028C24.3902 0 14.9997 0 14.9997 0C14.9997 0 5.60945 0 3.26185 0.558999C2.00153 0.871707 0.963503 1.81066 0.617799 2.97305C0 5.09641 0 9.5 0 9.5C0 9.5 0 13.9258 0.617799 16.027C0.963869 17.1893 1.97681 18.1058 3.26203 18.4188C5.63417 19 15 19 15 19C15 19 24.3902 19 26.7378 18.441C28.0231 18.1281 29.0362 17.2117 29.3823 16.0493C29.9999 13.9258 29.9999 9.52236 29.9999 9.52236C29.9999 9.52236 30.0246 5.09641 29.3819 2.97305ZM12.0099 13.5682V5.43181L19.8186 9.5L12.0099 13.5682Z"/>
    </symbol>


    <symbol id="arrow-bottom" viewBox="0 0 23 13">
        <path d="M1 1L11.5 11L22 1" stroke-width="2"/>
    </symbol>

    <symbol id="close" viewBox="0 0 24 24">
        <path d="M2.91589 0L0 2.91589L9.08411 12L0 21.0841L2.91589 24L12 14.9159L21.0841 24L24 21.0841L14.9159 12L24 2.91589L21.0841 0L12 9.08411L2.91589 0Z"/>
    </symbol>

    <symbol id="arrow-left" viewBox="0 0 15 22">
        <path d="M13 2L4 11L13 20" stroke-width="5"/>
    </symbol>

    <symbol id="arrow-right" viewBox="0 0 15 22">
        <path d="M2 2L11 11L2 20" stroke-width="5"/>
    </symbol>

    <symbol id="attention" viewBox="0 0 24 24">
        <path fill-rule="evenodd" clip-rule="evenodd"
              d="M12 22.2857C17.6806 22.2857 22.2857 17.6806 22.2857 12C22.2857 6.31936 17.6806 1.71429 12 1.71429C6.31936 1.71429 1.71429 6.31936 1.71429 12C1.71429 17.6806 6.31936 22.2857 12 22.2857ZM12 24C18.6274 24 24 18.6274 24 12C24 5.37258 18.6274 0 12 0C5.37258 0 0 5.37258 0 12C0 18.6274 5.37258 24 12 24Z"/>
        <path d="M10.8214 5.14286H13.1786V13.5463H10.8214V5.14286ZM12 18.8571C11.5143 18.8571 11.1071 18.6846 10.7786 18.3396C10.45 17.9945 10.2857 17.5669 10.2857 17.0569C10.2857 16.5318 10.45 16.1042 10.7786 15.7742C11.1071 15.4291 11.5143 15.2566 12 15.2566C12.4857 15.2566 12.8929 15.4291 13.2214 15.7742C13.55 16.1042 13.7143 16.5318 13.7143 17.0569C13.7143 17.5669 13.55 17.9945 13.2214 18.3396C12.8929 18.6846 12.4857 18.8571 12 18.8571Z"/>
    </symbol>

</svg>